<svg width="512" height="512" xmlns="http://www.w3.org/2000/svg">
  <g fill="none" fill-rule="evenodd">
    <circle fill="#343334" cx="256" cy="256" r="256"/>
    <path fill="#FFF" d="M405.102 321.343C387.062 341.972 360.557 355 331.013 355c-30.49 0-57.743-13.876-75.796-35.662C237.164 341.124 209.912 355 179.421 355 125.065 355 81 310.9 81 256.5s44.065-98.5 98.421-98.5c30.49 0 57.743 13.876 75.796 35.662C273.27 171.876 300.522 158 331.013 158c52.075 0 94.704 40.476 98.191 91.707h-44.389c-3.585-26.22-26.053-46.42-53.236-46.42-29.678 0-53.736 24.078-53.736 53.78 0 29.7 24.058 53.778 53.736 53.778 20.006 0 37.459-10.942 46.709-27.173h-33.7v-24.908h84.846v.6h.576v84.846h-24.908v-22.867zm-225.115-10.498c29.678 0 53.736-24.078 53.736-53.779 0-29.701-24.058-53.779-53.736-53.779-29.677 0-53.736 24.078-53.736 53.78 0 29.7 24.059 53.778 53.736 53.778z"/>
    <path fill="#343334" d="M287 256c0 59.647-48.353 108-108 108v-9.095c54.624 0 98.905-44.281 98.905-98.905H287zM224 257c0-59.647 48.353-108 108-108v9.095c-54.624 0-98.905 44.281-98.905 98.905H224z"/></g>
</svg>
