<?xml version="1.0" encoding="UTF-8"?>
<svg width="512px" height="512px" viewBox="0 0 512 512" version="1.1" xmlns="http://www.w3.org/2000/svg" xmlns:xlink="http://www.w3.org/1999/xlink">
    <!-- Generator: Sketch 46.2 (44496) - http://www.bohemiancoding.com/sketch -->
    <title>Oval</title>
    <desc>Created with Sketch.</desc>
    <defs></defs>
    <g id="Page-1" stroke="none" stroke-width="1" fill="none" fill-rule="evenodd">
        <circle id="Oval" fill="#343334" cx="256" cy="256" r="256"></circle>
        <g id="Group" transform="translate(81.000000, 149.000000)">
            <path d="M324.101893,172.342701 C306.061373,192.971798 279.557405,206 250.012966,206 C219.522459,206 192.270265,192.124064 174.21718,170.337752 C156.164095,192.124064 128.9119,206 98.4213938,206 C44.064759,206 0,161.900048 0,107.5 C0,53.0999521 44.064759,9 98.4213938,9 C128.9119,9 156.164095,22.8759355 174.21718,44.6622483 C192.270265,22.8759355 219.522459,9 250.012966,9 C302.088076,9 344.717145,49.4756082 348.203963,100.706897 L303.815475,100.706897 C300.230416,74.4874778 277.761624,54.2873563 250.578606,54.2873563 C220.901133,54.2873563 196.842788,78.3649164 196.842788,108.066092 C196.842788,137.767268 220.901133,161.844828 250.578606,161.844828 C270.584961,161.844828 288.037727,150.902882 297.287981,134.672424 L263.588331,134.672414 L263.588331,109.764368 L348.43436,109.764368 L348.43436,110.364342 L349.009939,110.364342 L349.009939,195.210371 L324.101893,195.210371 L324.101893,172.342701 Z M98.987034,161.844828 C128.664507,161.844828 152.722853,137.767268 152.722853,108.066092 C152.722853,78.3649164 128.664507,54.2873563 98.987034,54.2873563 C69.309561,54.2873563 45.2512156,78.3649164 45.2512156,108.066092 C45.2512156,137.767268 69.309561,161.844828 98.987034,161.844828 Z" id="Combined-Shape-Copy-7" fill="#FFFFFF"></path>
            <path d="M206,107 C206,166.646753 157.646753,215 98,215 L98,205.905263 C152.623869,205.905263 196.905263,161.623869 196.905263,107 L206,107 Z" id="Combined-Shape" fill="#343334"></path>
            <path d="M251,5.93718115e-14 C251,59.646753 202.646753,108 143,108 L143,98.9052632 C197.623869,98.9052632 241.905263,54.6238685 241.905263,3.41060513e-13 L251,5.68434189e-14 Z" id="Combined-Shape-Copy-2" fill="#343334" transform="translate(197.000000, 54.000000) rotate(-180.000000) translate(-197.000000, -54.000000) "></path>
        </g>
    </g>
</svg>