<?xml version="1.0" encoding="UTF-8" standalone="no"?>
<svg width="256px" height="256px" viewBox="0 0 256 256" version="1.1" xmlns="http://www.w3.org/2000/svg" xmlns:xlink="http://www.w3.org/1999/xlink">
    <!-- Generator: Sketch 3.6.1 (26313) - http://www.bohemiancoding.com/sketch -->
    <title>Group 2</title>
    <desc>Created with Sketch.</desc>
    <defs>
        <circle id="path-1" cx="127.785004" cy="128.175003" r="127.785004"></circle>
    </defs>
    <g id="Page-1" stroke="none" stroke-width="1" fill="none" fill-rule="evenodd">
        <path d="M19.9206655,59.6300049 C42.6001426,24.0153239 82.433578,0.38999939 127.785004,0.38999939 C198.358712,0.38999939 255.570007,57.6012943 255.570007,128.175003 C255.570007,198.748712 198.358712,255.960007 127.785004,255.960007 C82.1016821,255.960007 42.017411,231.987622 19.4254997,195.936161 L75.1462026,195.936161 L75.1462026,59.6300049 L19.9206655,59.6300049 Z" id="Combined-Shape" fill="#3B3B3B"></path>
        <g id="Group-2">
            <mask id="mask-2" fill="white">
                <use xlink:href="#path-1"></use>
            </mask>
            <use id="Oval-1" fill-opacity="0" fill="#3B3B3B" xlink:href="#path-1"></use>
            <g id="Group" mask="url(#mask-2)">
                <g transform="translate(-75.820300, 59.633943)">
                    <path d="M224.965576,136.306156 L70.2828619,136.306156 L70.2828619,0 L224.965576,0 L293.016665,68.1530782 L224.965576,136.300887 Z" id="Rectangle-2" fill="#78AAD6"></path>
                    <path d="M113.827177,136.209291 L113.827177,136.306156 L0,136.306156 L0,0 L113.827177,0 L113.827177,0.096865154 L181.7868,68.1530782 L113.827177,136.209291 Z" id="Combined-Shape" fill="#A8D4AA"></path>
                </g>
            </g>
        </g>
    </g>
</svg>